<?xml version="1.0" encoding="UTF-8"?>
<svg version="1.1" xmlns="http://www.w3.org/2000/svg" width="84" height="74">
<path d="M0 0 C27.72 0 55.44 0 84 0 C84 24.42 84 48.84 84 74 C56.28 74 28.56 74 0 74 C0 49.58 0 25.16 0 0 Z " fill="#333334" transform="translate(0,0)"/>
<path d="M0 0 C11 0 11 0 13.6875 1.5625 C15.52035388 4.96637149 15.54407614 7.19146701 15 11 C13.4375 13.4375 13.4375 13.4375 11 15 C7.25 15.25 7.25 15.25 4 15 C4 17.97 4 20.94 4 24 C2.68 24 1.36 24 0 24 C0 16.08 0 8.16 0 0 Z " fill="#F0F0F0" transform="translate(34,40)"/>
<path d="M0 0 C1.65 0 3.3 0 5 0 C6.17134222 3.62350621 7.33627802 7.24903999 8.5 10.875 C9.00080078 12.42380859 9.00080078 12.42380859 9.51171875 14.00390625 C9.82753906 14.99003906 10.14335937 15.97617187 10.46875 16.9921875 C10.90864258 18.35899658 10.90864258 18.35899658 11.35742188 19.75341797 C12 22 12 22 12 24 C10.68 24 9.36 24 8 24 C7.67 22.02 7.34 20.04 7 18 C3.04 18.495 3.04 18.495 -1 19 C-1.99 21.475 -1.99 21.475 -3 24 C-4.32 24 -5.64 24 -7 24 C-4.86662595 15.93519961 -2.49320448 7.96053614 0 0 Z " fill="#F3F3F3" transform="translate(17,40)"/>
<path d="M0 0 C3.375 0.9375 3.375 0.9375 5.375 3.9375 C5.69994847 7.51193322 5.75573056 10.06405931 4.3125 13.375 C2.375 14.9375 2.375 14.9375 -1.125 15.4375 C-4.625 14.9375 -4.625 14.9375 -6.5625 13.375 C-8.03782332 9.99043473 -8.08174603 7.59146822 -7.625 3.9375 C-5.3368323 0.27643167 -4.34846249 -0.07497349 0 0 Z " fill="#96A3B2" transform="translate(34.625,13.0625)"/>
<path d="M0 0 C4.62 0 9.24 0 14 0 C14 0.99 14 1.98 14 3 C12.35 3 10.7 3 9 3 C9 8.94 9 14.88 9 21 C10.65 21 12.3 21 14 21 C14 21.99 14 22.98 14 24 C9.38 24 4.76 24 0 24 C0 23.01 0 22.02 0 21 C1.65 21 3.3 21 5 21 C5 15.39 5 9.78 5 4 C3.35 4 1.7 4 0 4 C0 2.68 0 1.36 0 0 Z " fill="#F3F3F3" transform="translate(55,40)"/>
<path d="M0 0 C9.1796875 -0.29296875 9.1796875 -0.29296875 12 0 C14.35119399 3.52679099 14.21443452 5.02879485 14.125 9.1875 C14.10695313 10.27417969 14.08890625 11.36085938 14.0703125 12.48046875 C14.03550781 13.72763672 14.03550781 13.72763672 14 15 C13.01 15 12.02 15 11 15 C11 11.04 11 7.08 11 3 C10.01 3 9.02 3 8 3 C8 6.96 8 10.92 8 15 C7.34 15 6.68 15 6 15 C6 11.04 6 7.08 6 3 C5.01 3 4.02 3 3 3 C3 6.96 3 10.92 3 15 C2.01 15 1.02 15 0 15 C0 10.05 0 5.1 0 0 Z " fill="#97A4B2" transform="translate(11,13)"/>
<path d="M0 0 C0.99 0 1.98 0 3 0 C3.33 2.97 3.66 5.94 4 9 C4.598125 8.34 5.19625 7.68 5.8125 7 C8 5 8 5 11 5 C10.690625 5.5775 10.38125 6.155 10.0625 6.75 C8.57663651 9.75670471 8.57663651 9.75670471 8 13 C9.89229266 15.63624434 9.89229266 15.63624434 12 18 C12 18.66 12 19.32 12 20 C7.75177626 19.52797514 5.80010291 17.03344482 3 14 C3 15.98 3 17.96 3 20 C2.01 20 1.02 20 0 20 C0 13.4 0 6.8 0 0 Z " fill="#97A3B2" transform="translate(60,8)"/>
<path d="M0 0 C-0.33 0.99 -0.66 1.98 -1 3 C-2.98 3 -4.96 3 -7 3 C-7 5.31 -7 7.62 -7 10 C-3.52852158 10.74957157 -3.52852158 10.74957157 0 11 C0 11.99 0 12.98 0 14 C-7.48138414 14.36793693 -7.48138414 14.36793693 -9.734375 12.76953125 C-12.06377057 9.51269114 -11.62517224 5.82207577 -11 2 C-7.97861788 -2.10907968 -4.59200188 -0.97138501 0 0 Z " fill="#98A4B3" transform="translate(55,14)"/>
<path d="M0 0 C1.65 0 3.3 0 5 0 C6.25 6.625 6.25 6.625 4 10 C2.68 9.67 1.36 9.34 0 9 C-1.125 2.25 -1.125 2.25 0 0 Z " fill="#3A3A3B" transform="translate(31,16)"/>
<path d="M0 0 C1.99954746 -0.04254356 4.00041636 -0.04080783 6 0 C7 1 7 1 7.125 3.5 C7 6 7 6 6 7 C4.00041636 7.04080783 1.99954746 7.04254356 0 7 C0 4.69 0 2.38 0 0 Z " fill="#343434" transform="translate(38,44)"/>
<path d="M0 0 C2.29633824 3.44450737 2.54016485 5.93812283 3 10 C1.35 10 -0.3 10 -2 10 C-1.34 6.7 -0.68 3.4 0 0 Z " fill="#404040" transform="translate(19,45)"/>
</svg>
