<svg width="100" height="100" viewBox="0 0 100 100" fill="none" xmlns="http://www.w3.org/2000/svg">
<g clip-path="url(#clip0_1_2)">
<rect width="100" height="100" fill="white"/>
<path d="M50 0C22.3858 0 0 22.3858 0 50C0 77.6142 22.3858 100 50 100C77.6142 100 100 77.6142 100 50C100 22.3858 77.6142 0 50 0Z" fill="white"/>
<path d="M67.1405 37.0841C67.1405 37.0841 68.4001 38.5188 70.1598 38.5188C71.5495 38.5188 72.5594 37.6261 72.5594 36.4039C72.5594 34.9053 71.2695 34.2145 69.7098 34.2145H68.7901L68.2403 32.8967L70.6798 29.8253C71.1997 29.1662 71.6395 28.7519 71.6395 28.7519C71.6395 28.7519 71.2497 28.7731 70.4598 28.7731H66.4906V26.5625H74.6189V28.178L71.3595 32.1845C73.1992 32.4609 74.9987 33.8531 74.9987 36.3081C74.9987 38.7208 73.2792 40.9525 70.3098 40.9525C67.4803 40.9525 65.9108 39.0608 65.9108 39.0608L67.1405 37.0841Z" fill="#04AA6D"/>
<path d="M51.2847 40.0695L62.0227 60.3899L67.3216 50.3467L57.1836 31.1635H45.3859L40.4969 40.4203L35.608 31.1635H25L40.4369 60.3899L40.4969 60.2836L40.5569 60.3899L51.2847 40.0695Z" fill="#04AA6D"/>
<path d="M25.1122 74.1636H26.6819C26.6819 74.6525 27.0819 75.1202 27.7917 75.1202C28.4516 75.1202 28.8914 74.7694 28.8914 74.3017C28.8914 73.898 28.6016 73.7174 28.1016 73.6005L27.2019 73.356C25.6821 72.9308 25.2922 72.0699 25.2922 71.1561C25.2922 70.04 26.3321 69.0197 27.8017 69.0197C29.0014 69.0197 30.3613 69.6682 30.3413 71.2624H28.7516C28.7516 70.7735 28.3316 70.4652 27.8517 70.4652C27.3317 70.4652 26.9719 70.7839 26.9719 71.2303C26.9719 71.6024 27.3017 71.815 27.6917 71.9105L28.7716 72.2188C30.2913 72.6333 30.5611 73.6428 30.5611 74.3017C30.5611 75.7578 29.1914 76.5549 27.8217 76.5549C26.4919 76.5549 25.1422 75.6941 25.1122 74.1636Z" fill="#04AA6D"/>
<path d="M31.9506 72.782C31.9506 70.5077 33.6702 69.0197 35.6198 69.0197C36.7895 69.0197 37.7394 69.5723 38.3592 70.4014L37.1795 71.4005C36.8295 70.9541 36.2597 70.6777 35.6498 70.6777C34.48 70.6777 33.6402 71.5705 33.6402 72.782C33.6402 73.983 34.48 74.897 35.6498 74.897C36.2597 74.897 36.8295 74.6208 37.1795 74.1744L38.3592 75.1733C37.7394 76.0022 36.7895 76.5548 35.6198 76.5548C33.6702 76.5548 31.9506 75.0564 31.9506 72.782Z" fill="#04AA6D"/>
<path d="M46.4389 72.3487V76.3661H44.7592V72.4762C44.7592 71.3284 44.1094 70.712 43.3595 70.712C42.5895 70.712 41.6398 71.1903 41.6398 72.5825V76.3767H39.9601V65.3025H41.6498V70.287C41.9798 69.4153 43.0695 69.0116 43.7394 69.0116C45.4791 69.0222 46.4389 70.2656 46.4389 72.3487Z" fill="#04AA6D"/>
<path d="M48.1942 72.782C48.1942 70.5077 49.8539 69.0197 51.7734 69.0197C53.693 69.0197 55.3727 70.5077 55.3727 72.782C55.3727 75.0564 53.693 76.5548 51.7734 76.5548C49.8539 76.5548 48.1942 75.0564 48.1942 72.782ZM53.6831 72.782C53.6831 71.5492 52.8131 70.6777 51.7734 70.6777C50.7336 70.6777 49.8837 71.5492 49.8837 72.782C49.8837 74.0361 50.7336 74.897 51.7734 74.897C52.8131 74.897 53.6831 74.0361 53.6831 72.782Z" fill="#04AA6D"/>
<path d="M56.807 72.782C56.807 70.5077 58.4667 69.0197 60.3863 69.0197C62.3058 69.0197 63.9855 70.5077 63.9855 72.782C63.9855 75.0564 62.3058 76.5548 60.3863 76.5548C58.4766 76.5548 56.807 75.0564 56.807 72.782ZM62.2959 72.782C62.2959 71.5492 61.4261 70.6777 60.3863 70.6777C59.3464 70.6777 58.4966 71.5492 58.4966 72.782C58.4966 74.0361 59.3464 74.897 60.3863 74.897C61.4361 74.897 62.2959 74.0361 62.2959 72.782Z" fill="#04AA6D"/>
<path d="M65.8406 76.3767V65.3025H67.5203V76.3767H65.8406Z" fill="#04AA6D"/>
<path d="M69.3545 74.1636H70.924C70.924 74.6525 71.3241 75.1202 72.0339 75.1202C72.6937 75.1202 73.1337 74.7694 73.1337 74.3017C73.1337 73.898 72.8437 73.7173 72.3439 73.6005L71.4441 73.3559C69.9244 72.9308 69.5344 72.0698 69.5344 71.1561C69.5344 70.04 70.5742 69.0197 72.0439 69.0197C73.2436 69.0197 74.6033 69.6681 74.5834 71.2623H72.9837C72.9837 70.7734 72.5639 70.4652 72.0839 70.4652C71.5639 70.4652 71.204 70.7839 71.204 71.2303C71.204 71.6023 71.5341 71.815 71.9239 71.9105L73.0037 72.2187C74.5234 72.6333 74.7933 73.6428 74.7933 74.3017C74.7933 75.7578 73.4237 76.5548 72.0539 76.5548C70.724 76.5548 69.3844 75.6941 69.3545 74.1636Z" fill="#04AA6D"/>
</g>
<defs>
<clipPath id="clip0_1_2">
<rect width="100" height="100" fill="white"/>
</clipPath>
</defs>
</svg>
